<svg id="visual" viewBox="0 0 900 600" width="900" height="600" xmlns="http://www.w3.org/2000/svg" xmlns:xlink="http://www.w3.org/1999/xlink" version="1.1"><rect x="0" y="0" width="900" height="600" fill="#140021"></rect><path d="M0 371L129 371L129 305L257 305L257 319L386 319L386 381L514 381L514 355L643 355L643 311L771 311L771 361L900 361L900 340L900 601L900 601L771 601L771 601L643 601L643 601L514 601L514 601L386 601L386 601L257 601L257 601L129 601L129 601L0 601Z" fill="#9900ff"></path><path d="M0 388L129 388L129 419L257 419L257 366L386 366L386 462L514 462L514 348L643 348L643 449L771 449L771 434L900 434L900 347L900 601L900 601L771 601L771 601L643 601L643 601L514 601L514 601L386 601L386 601L257 601L257 601L129 601L129 601L0 601Z" fill="#7700c6"></path><path d="M0 521L129 521L129 542L257 542L257 475L386 475L386 478L514 478L514 459L643 459L643 501L771 501L771 499L900 499L900 480L900 601L900 601L771 601L771 601L643 601L643 601L514 601L514 601L386 601L386 601L257 601L257 601L129 601L129 601L0 601Z" fill="#560090"></path></svg>